<svg width="576" height="224" viewBox="0 0 576 224" fill="none" xmlns="http://www.w3.org/2000/svg">
<path d="M102.898 142.597V60.9136H79.7514V139.41C79.7514 157.692 70.6941 162.556 58.1145 162.556C52.915 162.556 47.7155 162.221 43.0191 161.55V181.006C47.8832 182.18 54.2568 182.516 61.3014 182.516C85.2864 182.516 102.898 172.285 102.898 142.597ZM163.476 182.516C179.075 182.516 192.325 174.968 197.692 162.221V180H218.658V96.1364H197.022V138.236C197.022 153.164 188.132 165.911 170.353 165.911C158.277 165.911 149.052 159.37 149.052 142.261V96.1364H127.415V145.951C127.415 169.265 138.988 182.516 163.476 182.516ZM335.094 135.72C335.094 108.884 317.65 93.6204 287.627 93.6204C257.939 93.6204 238.986 110.393 238.986 138.907C238.986 166.582 257.772 182.516 288.466 182.516C309.767 182.516 325.366 174.465 333.752 159.705L316.812 151.99C311.612 161.382 302.052 166.582 289.304 166.582C271.861 166.582 260.958 157.525 260.12 143.435H335.094V135.72ZM313.625 129.85H260.12C260.958 115.928 271.022 107.374 287.292 107.374C302.89 107.374 313.457 115.257 313.625 129.011V129.85ZM376.256 118.109V96.1364H356.465V180H378.101V147.293C378.101 137.23 379.611 127.669 386.32 120.96C390.849 116.431 397.222 113.915 406.951 113.915C409.299 113.915 411.312 114.083 413.492 114.419V94.4591C411.479 94.1236 409.802 93.9559 407.454 93.9559C391.687 93.9559 380.617 103.684 376.256 118.109ZM464.37 182.516C479.968 182.516 493.219 174.968 498.586 162.221V180H519.552V96.1364H497.915V138.236C497.915 153.164 489.026 165.911 471.246 165.911C459.17 165.911 449.945 159.37 449.945 142.261V96.1364H428.308V145.951C428.308 169.265 439.881 182.516 464.37 182.516Z" fill="black"/>
</svg>
