<svg width="653" height="484" viewBox="0 0 653 484" fill="none" xmlns="http://www.w3.org/2000/svg">
<g clip-path="url(#clip0_101_2)">
<g filter="url(#filter0_f_101_2)">
<path fill-rule="evenodd" clip-rule="evenodd" d="M427.03 147.479C460.53 145.974 490.722 166.121 513.684 190.56C535.881 214.184 550.147 244.821 548.927 277.214C547.748 308.539 530.757 336.677 507.395 357.579C485.358 377.297 456.493 383.758 427.03 386.279C393.754 389.126 354.063 397.356 331.624 372.62C309.396 348.116 325.036 310.155 328.093 277.214C330.706 249.05 330.673 220.5 347.825 198.009C367.567 172.122 394.507 148.94 427.03 147.479Z" fill="#C02F26" fill-opacity="0.6"/>
</g>
<g filter="url(#filter1_f_101_2)">
<path fill-rule="evenodd" clip-rule="evenodd" d="M183.689 213.153C168.883 187.101 113.518 211.447 119.366 182.163C125.567 151.109 155.53 132.299 183.331 117.541C212.615 101.996 256.012 83.711 288.077 92.667C322.061 102.159 342.784 131.815 354.42 165.327C365.319 196.72 350.509 230.6 332.667 258.363C318.732 280.046 292.695 286.167 269.559 297.372C246.264 308.654 224.159 330.747 199.364 322.923C174.278 315.006 196.754 236.14 183.689 213.153Z" fill="#0D0A0E" fill-opacity="0.41"/>
</g>
<g filter="url(#filter2_f_101_2)">
<path fill-rule="evenodd" clip-rule="evenodd" d="M188.152 219.139C212.08 217.185 224.376 244.234 244.911 255.578C268.766 268.756 308.267 264.555 316.011 289.773C323.721 314.88 298.105 340.099 275.794 356.144C258.656 368.469 235.541 358.706 214.58 362.716C193.282 366.791 173.532 388.426 154.295 379.388C134.772 370.217 135.106 344.208 131.574 323.722C128.098 303.565 124.556 282.982 134.501 264.597C145.86 243.602 163.521 221.151 188.152 219.139Z" fill="#FDF953" fill-opacity="0.56"/>
</g>
</g>
<defs>
<filter id="filter0_f_101_2" x="205.134" y="32.6351" width="458.631" height="472.028" filterUnits="userSpaceOnUse" color-interpolation-filters="sRGB">
<feFlood flood-opacity="0" result="BackgroundImageFix"/>
<feBlend mode="normal" in="SourceGraphic" in2="BackgroundImageFix" result="shape"/>
<feGaussianBlur stdDeviation="57.3823" result="effect1_foregroundBlur_101_2"/>
</filter>
<filter id="filter1_f_101_2" x="23.2975" y="-5.33395" width="430.479" height="425.535" filterUnits="userSpaceOnUse" color-interpolation-filters="sRGB">
<feFlood flood-opacity="0" result="BackgroundImageFix"/>
<feBlend mode="normal" in="SourceGraphic" in2="BackgroundImageFix" result="shape"/>
<feGaussianBlur stdDeviation="47.8186" result="effect1_foregroundBlur_101_2"/>
</filter>
<filter id="filter2_f_101_2" x="51.4922" y="142.529" width="342.429" height="315.556" filterUnits="userSpaceOnUse" color-interpolation-filters="sRGB">
<feFlood flood-opacity="0" result="BackgroundImageFix"/>
<feBlend mode="normal" in="SourceGraphic" in2="BackgroundImageFix" result="shape"/>
<feGaussianBlur stdDeviation="38.2549" result="effect1_foregroundBlur_101_2"/>
</filter>
<clipPath id="clip0_101_2">
<rect width="653" height="484" fill="white"/>
</clipPath>
</defs>
</svg>
